<svg width="855" height="418" viewBox="0 0 855 418" fill="none" xmlns="http://www.w3.org/2000/svg">
<g clip-path="url(#clip0_150_115)">
<path d="M65.6108 416.951C65.6108 416.951 -25.9835 321.278 50.1126 217.699C117.637 125.797 196.362 132.08 254.122 169.369C278.721 185.251 370.626 172.237 450.981 94.2519C536.539 11.2254 765.383 52.0097 725.673 223.836C703.567 319.505 802.304 322.234 750.427 417.156L65.6108 416.951Z" fill="#FCECDB"/>
<path d="M854.206 415.733H0.793614C0.355313 415.733 0 416.088 0 416.526V417.207C0 417.645 0.355313 418 0.793614 418H854.206C854.645 418 855 417.645 855 417.207V416.526C855 416.088 854.645 415.733 854.206 415.733Z" fill="#2E3552"/>
<path d="M805.355 7.16943L678.922 48.955L704.304 70.0921V70.0948L594.9 184.539L499.004 102.257L116.212 415.682L119.582 415.733H214.941L498.063 183.919L599.165 270.662L752.512 110.244L779.909 133.058L805.355 7.16943Z" fill="#699DEE"/>
<path d="M356.995 339.473L327.952 336.976C327.952 336.976 329.63 319.086 324.521 295.217C320.751 277.594 313.277 256.703 298.693 237.357C273.818 204.362 199.937 185.916 199.937 185.916V181.644L202.593 181.358C201.771 180.817 200.877 180.393 199.937 180.098V170.002C202.758 169.943 205.577 170.218 208.333 170.822C206.601 170.392 202.911 169.545 199.937 169.316V164.008C306.963 166.867 341.866 231.47 352.806 281.463C359.809 313.463 356.995 339.473 356.995 339.473Z" fill="#82B378"/>
<path d="M484.113 330.085L356.995 339.473C356.338 319.908 351.229 299.687 346.286 284.336C341.342 268.986 336.564 258.55 336.564 258.55C298.538 175.289 199.937 164.005 199.937 164.005L309.376 119.221C362.243 123.197 399.335 148.569 425.276 180.426C476.096 242.812 484.113 330.085 484.113 330.085Z" fill="#A8D29F"/>
<path opacity="0.5" d="M484.113 330.085L356.995 339.473L327.952 336.976C327.952 336.976 329.63 319.086 324.521 295.217C330.576 291.573 337.778 287.933 346.285 284.336C348.523 283.391 350.696 282.433 352.805 281.461C433.738 244.134 426.197 185.988 425.276 180.426C476.096 242.812 484.113 330.085 484.113 330.085Z" fill="#82B378"/>
<path d="M474.111 339.865L360.832 337.676L361.231 335.497C361.292 335.166 367.109 301.978 353.527 264.243C345.569 242.134 332.604 222.786 314.969 206.765C292.886 186.675 263.376 171.724 227.257 162.323L221.693 160.875L310.108 125.712H310.447C311.404 125.691 334.176 125.349 363.448 139.18C380.606 147.29 396.401 158.619 410.397 172.857C427.859 190.621 442.548 212.979 454.057 239.315C454.965 241.336 476.484 289.61 475.345 318.595V318.629L474.111 339.865ZM365.273 333.991L470.554 336.028L471.58 318.405C472.029 306.827 468.558 289.76 461.536 269.044C456.192 253.309 450.666 240.938 450.61 240.815C439.301 214.936 424.904 192.992 407.808 175.577C394.151 161.66 378.746 150.585 362.024 142.652C343.878 134.046 328.054 131.047 318.894 130.006C314.09 129.459 309.225 130.107 304.732 131.893L243.455 156.261C240.249 157.532 240.422 162.098 243.696 163.153C273.495 172.739 298.303 186.458 317.603 204.042C335.688 220.519 348.99 240.399 357.15 263.122C364.394 283.322 366.134 302.077 366.318 314.25C366.447 323.719 365.722 330.661 365.273 333.994V333.991Z" fill="#82B378"/>
<path d="M413.158 209.801C413.158 228.45 402.226 239.707 383.564 239.707C364.902 239.707 345.58 228.439 345.58 209.801C345.58 191.163 355.916 179.999 374.578 179.999C393.24 179.999 413.158 191.153 413.158 209.801Z" fill="#82B378"/>
<path d="M582.83 400.246V411.391C582.834 412.249 582.577 413.087 582.093 413.795C581.6 414.521 580.897 415.08 580.078 415.397C579.819 415.498 579.551 415.573 579.277 415.618C579.027 415.664 578.774 415.688 578.52 415.688H400.906C399.805 415.684 398.747 415.26 397.949 414.502C397.151 413.745 396.672 412.711 396.612 411.613C396.612 411.541 396.612 411.466 396.612 411.394V400.246C396.612 400.174 396.612 400.099 396.612 400.027C396.672 398.929 397.151 397.895 397.949 397.138C398.747 396.38 399.805 395.956 400.906 395.952H578.52C578.774 395.952 579.027 395.976 579.277 396.022C579.551 396.067 579.819 396.142 580.078 396.243C580.897 396.56 581.6 397.119 582.093 397.846C582.576 398.553 582.833 399.39 582.83 400.246Z" fill="#FFB93E"/>
<path d="M495.603 415.685H400.457C398.416 415.685 396.729 413.872 396.625 411.61C396.625 411.538 396.625 411.463 396.625 411.391V400.246C396.625 400.174 396.625 400.099 396.625 400.027C396.729 397.765 398.416 395.952 400.457 395.952H483.928C485.259 401.763 488.367 409.795 495.603 415.685Z" fill="#FFA412"/>
<path d="M561.219 395.952H559.201V415.685H561.219V395.952Z" fill="#FFA412"/>
<path d="M554.386 395.952H552.366V415.685H554.386V395.952Z" fill="#FFA412"/>
<path d="M546.191 395.952H544.173V415.685H546.191V395.952Z" fill="#FFA412"/>
<path d="M533.629 395.952H531.612V415.685H533.629V395.952Z" fill="#FFA412"/>
<path d="M520.349 395.952H518.331V415.685H520.349V395.952Z" fill="#FFA412"/>
<path d="M499.987 395.952H497.97V415.685H499.987V395.952Z" fill="#FFA412"/>
<path d="M480.925 395.952H478.905V415.685H480.925V395.952Z" fill="#FFA412"/>
<path d="M463.898 395.952H461.881V415.685H463.898V395.952Z" fill="#FFA412"/>
<path d="M567.723 395.952H565.705V415.685H567.723V395.952Z" fill="#FFA412"/>
<path d="M572.019 395.952H570.002V415.685H572.019V395.952Z" fill="#FFA412"/>
<path d="M576.169 395.952H574.152V415.685H576.169V395.952Z" fill="#FFA412"/>
<path d="M579.29 396.022V415.616C579.041 415.662 578.787 415.685 578.534 415.685H577.273V395.952H578.534C578.787 395.952 579.041 395.976 579.29 396.022Z" fill="#FFA412"/>
<path d="M582.093 397.851V413.786C581.6 414.513 580.898 415.072 580.078 415.389V396.238C580.899 396.558 581.602 397.12 582.093 397.851Z" fill="#FFA412"/>
<path d="M563.84 380.516V391.659C563.843 392.515 563.586 393.353 563.105 394.062C562.611 394.788 561.907 395.347 561.088 395.664C560.833 395.764 560.569 395.838 560.299 395.883C560.05 395.929 559.797 395.952 559.543 395.952H381.929C380.828 395.949 379.77 395.526 378.972 394.769C378.174 394.012 377.695 392.978 377.635 391.88C377.635 391.806 377.635 391.733 377.635 391.659V380.516C377.635 380.444 377.635 380.369 377.635 380.294C377.695 379.196 378.174 378.163 378.972 377.406C379.77 376.649 380.828 376.226 381.929 376.222H559.543C559.658 376.222 559.77 376.222 559.882 376.222C559.931 376.225 559.979 376.23 560.027 376.238C560.08 376.238 560.134 376.238 560.187 376.257L560.299 376.276C560.569 376.323 560.833 376.397 561.088 376.497L561.2 376.543L561.307 376.591L561.523 376.695L561.649 376.764L561.758 376.829L561.959 376.957C562.036 377.007 562.108 377.064 562.18 377.12C562.253 377.176 562.293 377.208 562.346 377.256L562.453 377.355C562.564 377.455 562.668 377.562 562.766 377.675C562.798 377.707 562.824 377.742 562.851 377.774L562.934 377.878C562.987 377.95 563.044 378.025 563.094 378.097C563.583 378.809 563.843 379.653 563.84 380.516Z" fill="#FFB93E"/>
<path d="M476.631 395.952H381.466C379.422 395.952 377.742 394.139 377.635 391.88C377.635 391.806 377.635 391.733 377.635 391.659V380.516C377.635 380.444 377.635 380.369 377.635 380.294C377.742 378.035 379.422 376.222 381.466 376.222H464.935C464.972 376.383 465.01 376.546 465.05 376.708C466.445 382.463 469.574 390.228 476.631 395.952Z" fill="#FFA412"/>
<path d="M542.228 376.222H540.211V395.955H542.228V376.222Z" fill="#FFA412"/>
<path d="M535.395 376.222H533.378V395.955H535.395V376.222Z" fill="#FFA412"/>
<path d="M527.2 376.222H525.183V395.955H527.2V376.222Z" fill="#FFA412"/>
<path d="M514.638 376.222H512.621V395.955H514.638V376.222Z" fill="#FFA412"/>
<path d="M501.358 376.222H499.341V395.955H501.358V376.222Z" fill="#FFA412"/>
<path d="M480.997 376.222H478.979V395.955H480.997V376.222Z" fill="#FFA412"/>
<path d="M461.931 376.222H459.914V395.955H461.931V376.222Z" fill="#FFA412"/>
<path d="M444.907 376.222H442.89V395.955H444.907V376.222Z" fill="#FFA412"/>
<path d="M548.734 376.222H546.714V395.955H548.734V376.222Z" fill="#FFA412"/>
<path d="M553.029 376.222H551.011V395.955H553.029V376.222Z" fill="#FFA412"/>
<path d="M557.178 376.222H555.161V395.955H557.178V376.222Z" fill="#FFA412"/>
<path d="M560.299 376.289V395.883C560.05 395.929 559.797 395.952 559.543 395.952H558.282V376.222H559.543C559.797 376.222 560.05 376.244 560.299 376.289Z" fill="#FFA412"/>
<path d="M563.105 378.118V394.057C562.61 394.782 561.907 395.34 561.088 395.659V376.505C561.908 376.826 562.612 377.389 563.105 378.118Z" fill="#FFA412"/>
<path d="M573.016 361.272V372.415C573.018 373.271 572.762 374.109 572.281 374.818C571.787 375.545 571.084 376.104 570.264 376.42C570.01 376.521 569.747 376.595 569.478 376.642C569.228 376.688 568.974 376.711 568.719 376.711H391.105C390.415 376.711 389.736 376.544 389.125 376.225C388.49 375.894 387.947 375.41 387.546 374.817C387.145 374.224 386.898 373.541 386.827 372.829C386.827 372.765 386.827 372.703 386.813 372.636C386.8 372.57 386.813 372.489 386.813 372.417V361.275C386.813 361.2 386.813 361.128 386.813 361.053C386.873 359.955 387.351 358.921 388.149 358.164C388.947 357.406 390.004 356.982 391.105 356.978H568.719C568.974 356.979 569.228 357.002 569.478 357.048C569.747 357.096 570.01 357.17 570.264 357.269C571.084 357.586 571.787 358.145 572.281 358.872C572.762 359.58 573.018 360.416 573.016 361.272Z" fill="#FFB93E"/>
<path d="M485.799 376.708H390.645C390.023 376.707 389.412 376.539 388.876 376.222C388.289 375.859 387.798 375.362 387.441 374.771C387.085 374.181 386.874 373.514 386.827 372.826C386.827 372.762 386.827 372.7 386.813 372.634C386.8 372.567 386.813 372.487 386.813 372.415V361.272C386.813 361.197 386.813 361.125 386.813 361.051C386.918 358.792 388.601 356.976 390.645 356.976H474.113C475.409 362.626 478.389 370.383 485.216 376.222C485.406 376.385 485.601 376.546 485.799 376.708Z" fill="#FFA412"/>
<path d="M551.404 356.976H549.386V376.708H551.404V356.976Z" fill="#FFA412"/>
<path d="M544.571 356.976H542.554V376.708H544.571V356.976Z" fill="#FFA412"/>
<path d="M536.376 356.976H534.359V376.708H536.376V356.976Z" fill="#FFA412"/>
<path d="M523.817 356.976H521.8V376.708H523.817V356.976Z" fill="#FFA412"/>
<path d="M510.534 356.976H508.517V376.708H510.534V356.976Z" fill="#FFA412"/>
<path d="M490.173 356.976H488.155V376.708H490.173V356.976Z" fill="#FFA412"/>
<path d="M471.107 356.976H469.09V376.708H471.107V356.976Z" fill="#FFA412"/>
<path d="M454.083 356.976H452.066V376.708H454.083V356.976Z" fill="#FFA412"/>
<path d="M557.908 356.976H555.89V376.708H557.908V356.976Z" fill="#FFA412"/>
<path d="M562.205 356.976H560.187V376.708H562.205V356.976Z" fill="#FFA412"/>
<path d="M566.354 356.976H564.337V376.708H566.354V356.976Z" fill="#FFA412"/>
<path d="M569.478 357.045V376.639C569.228 376.685 568.974 376.708 568.719 376.708H567.458V356.976H568.719C568.974 356.976 569.228 356.999 569.478 357.045Z" fill="#FFA412"/>
<path d="M572.292 358.874V374.813C571.798 375.539 571.094 376.098 570.274 376.415V357.264C571.096 357.582 571.8 358.144 572.292 358.874Z" fill="#FFA412"/>
<path d="M577.273 341.54V352.682C577.274 353.539 577.017 354.377 576.535 355.085C576.041 355.812 575.337 356.371 574.518 356.687C574.264 356.787 574.001 356.861 573.732 356.909C573.482 356.954 573.228 356.977 572.973 356.976H395.359C394.258 356.973 393.201 356.549 392.403 355.792C391.605 355.035 391.127 354.002 391.067 352.904C391.067 352.829 391.067 352.757 391.067 352.682V341.54C391.067 341.467 391.067 341.393 391.067 341.321C391.122 340.31 391.531 339.351 392.223 338.611C392.915 337.872 393.845 337.4 394.851 337.278C395.019 337.256 395.189 337.246 395.359 337.246H572.973C573.228 337.246 573.482 337.269 573.732 337.315C574.001 337.362 574.264 337.436 574.518 337.534C575.337 337.852 576.04 338.411 576.535 339.136C577.016 339.845 577.273 340.683 577.273 341.54Z" fill="#FFB93E"/>
<path d="M490.053 356.976H394.899C392.855 356.976 391.158 355.163 391.067 352.904C391.067 352.829 391.067 352.757 391.067 352.682V341.54C391.067 341.467 391.067 341.393 391.067 341.321C391.163 339.23 392.612 337.521 394.445 337.278C394.595 337.256 394.747 337.246 394.899 337.246H478.367V337.278C479.712 343.08 482.819 351.096 490.053 356.976Z" fill="#FFA412"/>
<path d="M555.661 337.246H553.641V356.978H555.661V337.246Z" fill="#FFA412"/>
<path d="M548.825 337.246H546.808V356.978H548.825V337.246Z" fill="#FFA412"/>
<path d="M540.633 337.246H538.615V356.978H540.633V337.246Z" fill="#FFA412"/>
<path d="M528.071 337.246H526.054V356.978H528.071V337.246Z" fill="#FFA412"/>
<path d="M514.788 337.246H512.771V356.978H514.788V337.246Z" fill="#FFA412"/>
<path d="M494.429 337.246H492.409V356.978H494.429V337.246Z" fill="#FFA412"/>
<path d="M475.364 337.246H473.347V356.978H475.364V337.246Z" fill="#FFA412"/>
<path d="M458.34 337.246H456.32V356.978H458.34V337.246Z" fill="#FFA412"/>
<path d="M562.162 337.246H560.144V356.978H562.162V337.246Z" fill="#FFA412"/>
<path d="M566.461 337.246H564.444V356.978H566.461V337.246Z" fill="#FFA412"/>
<path d="M570.611 337.246H568.591V356.978H570.611V337.246Z" fill="#FFA412"/>
<path d="M573.732 337.313V356.906C573.482 356.953 573.228 356.976 572.973 356.976H571.712V337.246H572.973C573.227 337.246 573.481 337.269 573.732 337.313Z" fill="#FFA412"/>
<path d="M576.535 339.142V355.08C576.041 355.807 575.337 356.365 574.518 356.682V337.529C575.339 337.848 576.043 338.411 576.535 339.142Z" fill="#FFA412"/>
<path d="M564.214 321.85V332.992C564.216 333.849 563.959 334.687 563.476 335.395C562.983 336.123 562.279 336.682 561.459 336.998C561.205 337.097 560.942 337.171 560.673 337.219L560.425 337.257L560.283 337.27H560.144H559.917H382.305C381.205 337.266 380.148 336.842 379.35 336.084C378.552 335.327 378.074 334.293 378.014 333.195C378.014 333.12 378.014 333.048 378.014 332.974V321.85C378.014 321.778 378.014 321.703 378.014 321.631C378.014 321.559 378.014 321.508 378.014 321.449C378.101 320.568 378.457 319.735 379.033 319.062C379.609 318.39 380.379 317.911 381.237 317.689C381.279 317.676 381.325 317.668 381.368 317.657C381.672 317.59 381.983 317.556 382.295 317.556H559.912C560.04 317.556 560.179 317.556 560.294 317.572L560.468 317.591L560.668 317.625C560.937 317.672 561.2 317.746 561.454 317.847C562.274 318.163 562.977 318.722 563.471 319.449C563.954 320.157 564.213 320.993 564.214 321.85Z" fill="#FFB93E"/>
<path d="M476.997 337.278H381.84C379.796 337.278 378.1 335.462 378.009 333.203C378.009 333.128 378.009 333.056 378.009 332.982V321.85C378.009 321.778 378.009 321.703 378.009 321.631C378.009 321.559 378.009 321.508 378.009 321.449C378.164 319.58 379.393 318.066 380.985 317.663C381.04 317.647 381.095 317.634 381.151 317.625C381.374 317.579 381.602 317.556 381.83 317.556H465.298C465.298 317.604 465.32 317.649 465.333 317.697C466.669 323.484 469.787 331.417 476.946 337.257L476.997 337.278Z" fill="#FFA412"/>
<path d="M542.599 317.545H540.582V337.275H542.599V317.545Z" fill="#FFA412"/>
<path d="M535.77 317.545H533.749V337.275H535.77V317.545Z" fill="#FFA412"/>
<path d="M527.574 317.545H525.554V337.275H527.574V317.545Z" fill="#FFA412"/>
<path d="M515.013 317.545H512.995V337.275H515.013V317.545Z" fill="#FFA412"/>
<path d="M501.73 317.545H499.712V337.275H501.73V317.545Z" fill="#FFA412"/>
<path d="M481.368 317.545H479.351V337.275H481.368V317.545Z" fill="#FFA412"/>
<path d="M462.305 317.545H460.288V337.275H462.305V317.545Z" fill="#FFA412"/>
<path d="M445.281 317.545H443.264V337.275H445.281V317.545Z" fill="#FFA412"/>
<path d="M549.106 317.545H547.089V337.275H549.106V317.545Z" fill="#FFA412"/>
<path d="M553.403 317.545H551.385V337.275H553.403V317.545Z" fill="#FFA412"/>
<path d="M557.552 317.545H555.535V337.275H557.552V317.545Z" fill="#FFA412"/>
<path d="M560.673 317.612V337.206C560.424 337.252 560.171 337.275 559.917 337.275H558.664V317.545H559.928C560.178 317.546 560.427 317.569 560.673 317.612Z" fill="#FFA412"/>
<path d="M563.474 319.446V335.385C562.98 336.111 562.276 336.67 561.456 336.987V317.844C562.276 318.161 562.98 318.72 563.474 319.446Z" fill="#FFA412"/>
<path d="M563.84 302.248V313.391C563.842 314.247 563.586 315.085 563.105 315.794C562.61 316.52 561.907 317.078 561.087 317.396C560.888 317.474 560.682 317.535 560.473 317.58C560.414 317.596 560.361 317.607 560.302 317.617C560.052 317.664 559.799 317.687 559.546 317.687H381.931C381.745 317.687 381.56 317.674 381.375 317.647C381.305 317.64 381.234 317.63 381.164 317.615C380.212 317.439 379.346 316.949 378.707 316.223C378.067 315.496 377.69 314.576 377.637 313.609C377.637 313.535 377.637 313.463 377.637 313.388V302.245C377.637 302.173 377.637 302.098 377.637 302.024C377.698 300.926 378.176 299.892 378.975 299.135C379.773 298.378 380.831 297.955 381.931 297.952H559.546C559.661 297.952 559.773 297.952 559.885 297.952L560.029 297.968C560.083 297.971 560.137 297.978 560.19 297.989C560.227 297.993 560.265 297.999 560.302 298.008C560.572 298.053 560.836 298.126 561.09 298.227L561.202 298.272L561.309 298.32L561.526 298.424C561.606 298.467 561.683 298.51 561.761 298.558L561.961 298.686C562.039 298.739 562.111 298.793 562.183 298.849C562.255 298.905 562.295 298.937 562.349 298.985L562.456 299.081C562.566 299.181 562.671 299.288 562.768 299.401C562.8 299.434 562.827 299.468 562.854 299.5L562.937 299.604C562.99 299.676 563.046 299.751 563.097 299.823C563.584 300.538 563.843 301.383 563.84 302.248Z" fill="#FFB93E"/>
<path d="M476.631 317.687H381.466C381.392 317.687 381.314 317.687 381.242 317.687C381.17 317.687 381.079 317.674 380.996 317.66C379.168 317.409 377.731 315.703 377.635 313.62C377.635 313.545 377.635 313.473 377.635 313.399V302.256C377.635 302.184 377.635 302.109 377.635 302.034C377.742 299.775 379.422 297.962 381.466 297.962H464.935C464.972 298.122 465.01 298.285 465.05 298.448C466.434 304.165 469.526 311.839 476.452 317.553L476.631 317.687Z" fill="#FFA412"/>
<path d="M542.228 297.954H540.211V317.684H542.228V297.954Z" fill="#FFA412"/>
<path d="M535.395 297.954H533.378V317.684H535.395V297.954Z" fill="#FFA412"/>
<path d="M527.2 297.954H525.183V317.684H527.2V297.954Z" fill="#FFA412"/>
<path d="M514.638 297.954H512.621V317.684H514.638V297.954Z" fill="#FFA412"/>
<path d="M501.358 297.954H499.341V317.684H501.358V297.954Z" fill="#FFA412"/>
<path d="M480.997 297.954H478.979V317.684H480.997V297.954Z" fill="#FFA412"/>
<path d="M461.931 297.954H459.914V317.684H461.931V297.954Z" fill="#FFA412"/>
<path d="M444.907 297.954H442.89V317.684H444.907V297.954Z" fill="#FFA412"/>
<path d="M548.734 297.954H546.714V317.684H548.734V297.954Z" fill="#FFA412"/>
<path d="M553.029 297.954H551.011V317.684H553.029V297.954Z" fill="#FFA412"/>
<path d="M557.178 297.954H555.161V317.684H557.178V297.954Z" fill="#FFA412"/>
<path d="M560.299 298.024V317.617C560.05 317.664 559.797 317.687 559.543 317.687H558.282V297.954H559.543C559.797 297.954 560.05 297.977 560.299 298.024Z" fill="#FFA412"/>
<path d="M563.105 299.85V315.788C562.61 316.514 561.907 317.072 561.088 317.39V298.245C561.907 298.564 562.611 299.123 563.105 299.85Z" fill="#FFA412"/>
<path d="M573.016 283.004V294.147C573.018 295.003 572.762 295.84 572.281 296.55C571.787 297.276 571.084 297.835 570.264 298.152C570.01 298.252 569.747 298.325 569.478 298.371C569.228 298.417 568.974 298.44 568.719 298.44H391.105C390.415 298.44 389.736 298.273 389.125 297.954C388.49 297.624 387.947 297.14 387.546 296.548C387.145 295.955 386.897 295.272 386.827 294.56C386.827 294.496 386.827 294.432 386.813 294.368C386.8 294.304 386.813 294.221 386.813 294.147V283.004C386.813 282.929 386.813 282.857 386.813 282.782C386.873 281.684 387.351 280.651 388.149 279.894C388.947 279.137 390.004 278.713 391.105 278.71H568.719C568.974 278.709 569.228 278.732 569.478 278.777C569.747 278.825 570.01 278.899 570.264 278.999C571.084 279.315 571.787 279.874 572.281 280.601C572.763 281.31 573.019 282.147 573.016 283.004Z" fill="#FFB93E"/>
<path d="M485.799 298.44H390.645C390.023 298.439 389.412 298.271 388.876 297.954C388.289 297.592 387.798 297.095 387.441 296.505C387.085 295.915 386.874 295.248 386.827 294.56C386.827 294.496 386.827 294.432 386.813 294.368C386.8 294.304 386.813 294.221 386.813 294.147V283.004C386.813 282.929 386.813 282.857 386.813 282.782C386.918 280.523 388.601 278.71 390.645 278.71H474.113C475.409 284.36 478.389 292.115 485.216 297.954C485.406 298.117 485.601 298.28 485.799 298.44Z" fill="#FFA412"/>
<path d="M551.404 278.71H549.386V298.44H551.404V278.71Z" fill="#FFA412"/>
<path d="M544.571 278.71H542.554V298.44H544.571V278.71Z" fill="#FFA412"/>
<path d="M536.376 278.71H534.359V298.44H536.376V278.71Z" fill="#FFA412"/>
<path d="M523.817 278.71H521.8V298.44H523.817V278.71Z" fill="#FFA412"/>
<path d="M510.534 278.71H508.517V298.44H510.534V278.71Z" fill="#FFA412"/>
<path d="M490.173 278.71H488.155V298.44H490.173V278.71Z" fill="#FFA412"/>
<path d="M471.107 278.71H469.09V298.44H471.107V278.71Z" fill="#FFA412"/>
<path d="M454.083 278.71H452.066V298.44H454.083V278.71Z" fill="#FFA412"/>
<path d="M557.908 278.71H555.89V298.44H557.908V278.71Z" fill="#FFA412"/>
<path d="M562.205 278.71H560.187V298.44H562.205V278.71Z" fill="#FFA412"/>
<path d="M566.354 278.71H564.337V298.44H566.354V278.71Z" fill="#FFA412"/>
<path d="M569.478 278.78V298.373C569.228 298.417 568.974 298.44 568.719 298.44H567.458V278.71H568.719C568.974 278.71 569.228 278.734 569.478 278.78Z" fill="#FFA412"/>
<path d="M572.292 280.606V296.544C571.798 297.271 571.094 297.83 570.274 298.146V278.993C571.096 279.313 571.799 279.876 572.292 280.606Z" fill="#FFA412"/>
<path d="M587.523 263.271V274.414C587.525 275.271 587.269 276.108 586.788 276.817C586.295 277.544 585.591 278.103 584.771 278.419C584.517 278.52 584.254 278.594 583.985 278.641C583.734 278.687 583.481 278.71 583.226 278.71H405.611C404.511 278.707 403.453 278.283 402.655 277.526C401.857 276.768 401.379 275.734 401.32 274.636C401.32 274.564 401.32 274.489 401.32 274.414V263.271C401.32 263.199 401.32 263.124 401.32 263.052C401.375 262.042 401.785 261.083 402.477 260.344C403.168 259.605 404.098 259.132 405.104 259.01C405.272 258.988 405.442 258.978 405.611 258.978H583.247C583.502 258.978 583.756 259.001 584.006 259.047C584.275 259.094 584.538 259.168 584.792 259.269C585.612 259.585 586.316 260.144 586.809 260.871C587.283 261.581 587.532 262.418 587.523 263.271Z" fill="#FFB93E"/>
<path d="M500.313 278.71H405.16C403.116 278.71 401.419 276.897 401.328 274.636C401.328 274.564 401.328 274.489 401.328 274.414V263.271C401.328 263.199 401.328 263.124 401.328 263.052C401.422 260.962 402.87 259.253 404.706 259.01C404.856 258.988 405.008 258.977 405.16 258.978H488.628V259.01C489.972 264.815 493.08 272.831 500.313 278.71Z" fill="#FFA412"/>
<path d="M565.919 258.978H563.901V278.708H565.919V258.978Z" fill="#FFA412"/>
<path d="M559.086 258.978H557.069V278.708H559.086V258.978Z" fill="#FFA412"/>
<path d="M550.891 258.978H548.874V278.708H550.891V258.978Z" fill="#FFA412"/>
<path d="M538.332 258.978H536.315V278.708H538.332V258.978Z" fill="#FFA412"/>
<path d="M525.049 258.978H523.032V278.708H525.049V258.978Z" fill="#FFA412"/>
<path d="M504.688 258.978H502.67V278.708H504.688V258.978Z" fill="#FFA412"/>
<path d="M485.625 258.978H483.607V278.708H485.625V258.978Z" fill="#FFA412"/>
<path d="M468.601 258.978H466.583V278.708H468.601V258.978Z" fill="#FFA412"/>
<path d="M572.425 258.978H570.405V278.708H572.425V258.978Z" fill="#FFA412"/>
<path d="M576.722 258.978H574.705V278.708H576.722V258.978Z" fill="#FFA412"/>
<path d="M580.869 258.978H578.852V278.708H580.869V258.978Z" fill="#FFA412"/>
<path d="M583.993 259.047V278.641C583.743 278.687 583.489 278.71 583.234 278.71H581.973V258.978H583.247C583.497 258.978 583.747 259.002 583.993 259.047Z" fill="#FFA412"/>
<path d="M586.796 260.873V276.812C586.303 277.539 585.599 278.098 584.779 278.414V259.263C585.6 259.582 586.303 260.144 586.796 260.873Z" fill="#FFA412"/>
<path d="M564.214 243.571V254.713C564.216 255.57 563.959 256.408 563.476 257.117C562.983 257.844 562.279 258.403 561.459 258.719C561.206 258.82 560.942 258.894 560.673 258.94C560.591 258.94 560.508 258.97 560.425 258.978C560.342 258.986 560.291 258.978 560.224 258.996H560.126H559.917H382.305C381.205 258.993 380.148 258.569 379.35 257.811C378.552 257.053 378.074 256.02 378.014 254.922C378.014 254.847 378.014 254.775 378.014 254.7V243.557C378.014 243.485 378.014 243.411 378.014 243.338C378.074 242.24 378.552 241.207 379.35 240.449C380.148 239.692 381.205 239.268 382.305 239.264H559.923H560.15C560.329 239.272 560.508 239.292 560.684 239.325C560.953 239.372 561.216 239.446 561.47 239.547C561.598 239.594 561.723 239.65 561.844 239.712C561.919 239.75 561.993 239.787 562.066 239.83C562.074 239.834 562.082 239.839 562.09 239.846L562.303 239.979L562.341 240.003C562.408 240.047 562.472 240.094 562.533 240.145C562.685 240.258 562.828 240.382 562.961 240.516C563.004 240.556 563.044 240.599 563.081 240.642L563.102 240.666L563.177 240.746V240.764C563.22 240.812 563.263 240.866 563.303 240.919C563.343 240.973 563.42 241.071 563.474 241.154C563.96 241.866 564.218 242.709 564.214 243.571Z" fill="#FFB93E"/>
<path d="M476.997 259.01H381.84C379.796 259.01 378.1 257.197 378.009 254.935C378.009 254.86 378.009 254.788 378.009 254.713V243.571C378.009 243.499 378.009 243.424 378.009 243.352C378.113 241.09 379.796 239.277 381.84 239.277H465.309C465.344 239.427 465.378 239.579 465.419 239.734C466.805 245.491 469.926 253.242 476.957 258.978L476.997 259.01Z" fill="#FFA412"/>
<path d="M542.599 239.277H540.582V259.01H542.599V239.277Z" fill="#FFA412"/>
<path d="M535.77 239.277H533.749V259.01H535.77V239.277Z" fill="#FFA412"/>
<path d="M527.574 239.277H525.554V259.01H527.574V239.277Z" fill="#FFA412"/>
<path d="M515.013 239.277H512.995V259.01H515.013V239.277Z" fill="#FFA412"/>
<path d="M501.73 239.277H499.712V259.01H501.73V239.277Z" fill="#FFA412"/>
<path d="M481.368 239.277H479.351V259.01H481.368V239.277Z" fill="#FFA412"/>
<path d="M462.305 239.277H460.288V259.01H462.305V239.277Z" fill="#FFA412"/>
<path d="M445.281 239.277H443.264V259.01H445.281V239.277Z" fill="#FFA412"/>
<path d="M549.106 239.277H547.089V259.01H549.106V239.277Z" fill="#FFA412"/>
<path d="M553.403 239.277H551.385V259.01H553.403V239.277Z" fill="#FFA412"/>
<path d="M557.552 239.277H555.535V259.01H557.552V239.277Z" fill="#FFA412"/>
<path d="M560.673 239.341V258.935C560.424 258.981 560.171 259.004 559.917 259.004H558.664V239.272H559.928C560.178 239.272 560.428 239.296 560.673 239.341Z" fill="#FFA412"/>
<path d="M563.474 241.176V257.111C562.981 257.838 562.277 258.398 561.456 258.713V239.563C562.278 239.882 562.982 240.444 563.474 241.176Z" fill="#FFA412"/>
<path d="M577.273 224.297V235.44C577.273 236.297 577.016 237.134 576.535 237.843C576.041 238.57 575.338 239.129 574.518 239.445C574.264 239.546 574.001 239.621 573.732 239.667C573.482 239.713 573.228 239.736 572.973 239.736H395.359C394.692 239.738 394.035 239.581 393.44 239.28C392.787 238.953 392.227 238.466 391.814 237.864C391.401 237.262 391.148 236.565 391.078 235.838C391.078 235.782 391.078 235.723 391.078 235.662C391.078 235.6 391.078 235.515 391.078 235.443V224.3C391.078 224.225 391.078 224.151 391.078 224.078C391.133 223.068 391.543 222.109 392.235 221.37C392.926 220.631 393.856 220.158 394.862 220.036C395.03 220.014 395.2 220.004 395.369 220.004H572.984C573.238 220.004 573.492 220.027 573.743 220.073C574.012 220.12 574.275 220.194 574.528 220.295C575.349 220.611 576.053 221.17 576.546 221.897C577.024 222.606 577.277 223.442 577.273 224.297Z" fill="#FFB93E"/>
<path d="M490.053 239.734H394.899C394.298 239.734 393.708 239.576 393.186 239.277C392.582 238.917 392.074 238.416 391.706 237.817C391.339 237.217 391.123 236.537 391.078 235.835C391.078 235.779 391.078 235.72 391.078 235.659C391.078 235.598 391.078 235.512 391.078 235.44V224.297C391.078 224.223 391.078 224.148 391.078 224.076C391.174 221.988 392.622 220.279 394.456 220.033C394.606 220.012 394.758 220.001 394.91 220.001H478.368V220.033C479.669 225.691 482.643 233.445 489.499 239.277C489.685 239.432 489.869 239.584 490.053 239.734Z" fill="#FFA412"/>
<path d="M555.661 220.001H553.641V239.731H555.661V220.001Z" fill="#FFA412"/>
<path d="M548.825 220.001H546.808V239.731H548.825V220.001Z" fill="#FFA412"/>
<path d="M540.633 220.001H538.615V239.731H540.633V220.001Z" fill="#FFA412"/>
<path d="M528.071 220.001H526.054V239.731H528.071V220.001Z" fill="#FFA412"/>
<path d="M514.788 220.001H512.771V239.731H514.788V220.001Z" fill="#FFA412"/>
<path d="M494.429 220.001H492.409V239.731H494.429V220.001Z" fill="#FFA412"/>
<path d="M475.364 220.001H473.347V239.731H475.364V220.001Z" fill="#FFA412"/>
<path d="M458.34 220.001H456.32V239.731H458.34V220.001Z" fill="#FFA412"/>
<path d="M562.162 220.001H560.144V239.731H562.162V220.001Z" fill="#FFA412"/>
<path d="M566.461 220.001H564.444V239.731H566.461V220.001Z" fill="#FFA412"/>
<path d="M570.611 220.001H568.591V239.731H570.611V220.001Z" fill="#FFA412"/>
<path d="M573.732 220.071V239.664C573.482 239.71 573.228 239.734 572.973 239.734H571.712V220.001H572.973C573.228 220.001 573.482 220.024 573.732 220.071Z" fill="#FFA412"/>
<path d="M576.535 221.897V237.835C576.042 238.562 575.338 239.121 574.518 239.437V220.287C575.339 220.605 576.043 221.167 576.535 221.897Z" fill="#FFA412"/>
<path d="M564.214 204.597V215.74C564.215 216.596 563.958 217.434 563.476 218.143C562.983 218.869 562.279 219.428 561.459 219.745C561.206 219.846 560.942 219.92 560.673 219.966C560.591 219.966 560.508 219.996 560.425 220.004L560.283 220.02C560.238 220.02 560.193 220.02 560.144 220.02H559.917H382.305C381.205 220.016 380.148 219.592 379.35 218.834C378.552 218.077 378.074 217.043 378.014 215.945C378.014 215.873 378.014 215.798 378.014 215.726V204.584C378.014 204.509 378.014 204.434 378.014 204.362C378.074 203.264 378.552 202.23 379.35 201.473C380.148 200.715 381.205 200.291 382.305 200.287H559.923C560.176 200.287 560.429 200.311 560.679 200.357C560.948 200.403 561.211 200.477 561.464 200.578C562.285 200.894 562.989 201.453 563.482 202.18C563.965 202.893 564.22 203.736 564.214 204.597Z" fill="#FFB93E"/>
<path d="M476.997 220.033H381.84C379.796 220.033 378.1 218.22 378.009 215.959C378.009 215.886 378.009 215.812 378.009 215.74V204.597C378.009 204.522 378.009 204.447 378.009 204.375C378.113 202.116 379.796 200.301 381.84 200.301H465.309C466.645 206.1 469.737 214.116 476.957 220.001L476.997 220.033Z" fill="#FFA412"/>
<path d="M542.599 200.301H540.582V220.033H542.599V200.301Z" fill="#FFA412"/>
<path d="M535.77 200.301H533.749V220.033H535.77V200.301Z" fill="#FFA412"/>
<path d="M527.574 200.301H525.554V220.033H527.574V200.301Z" fill="#FFA412"/>
<path d="M515.013 200.301H512.995V220.033H515.013V200.301Z" fill="#FFA412"/>
<path d="M501.73 200.301H499.712V220.033H501.73V200.301Z" fill="#FFA412"/>
<path d="M481.368 200.301H479.351V220.033H481.368V200.301Z" fill="#FFA412"/>
<path d="M462.305 200.301H460.288V220.033H462.305V200.301Z" fill="#FFA412"/>
<path d="M445.284 200.301H443.264V220.033H445.284V200.301Z" fill="#FFA412"/>
<path d="M549.106 200.301H547.089V220.033H549.106V200.301Z" fill="#FFA412"/>
<path d="M553.403 200.301H551.385V220.033H553.403V200.301Z" fill="#FFA412"/>
<path d="M557.552 200.301H555.535V220.033H557.552V200.301Z" fill="#FFA412"/>
<path d="M560.673 200.37V219.964C560.424 220.01 560.171 220.033 559.917 220.033H558.664V200.301H559.928C560.178 200.301 560.428 200.324 560.673 200.37Z" fill="#FFA412"/>
<path d="M563.474 202.199V218.135C562.981 218.862 562.277 219.421 561.456 219.737V200.586C562.278 200.905 562.982 201.468 563.474 202.199Z" fill="#FFA412"/>
<path d="M472.085 386.314C511.341 347.086 511.341 283.485 472.085 244.257C432.829 205.03 369.182 205.029 329.926 244.257C290.67 283.485 290.67 347.086 329.926 386.314C369.182 425.542 432.829 425.542 472.085 386.314Z" fill="#E2810E"/>
<path d="M463.316 386.313C502.572 347.086 502.572 283.484 463.316 244.257C424.06 205.029 360.413 205.029 321.157 244.257C281.901 283.485 281.901 347.086 321.157 386.313C360.413 425.541 424.06 425.541 463.316 386.313Z" fill="#FFB93E"/>
<path d="M392.238 407.992C371.049 407.992 350.515 400.651 334.136 387.218C317.756 373.786 306.545 355.094 302.411 334.327C298.277 313.56 301.477 292.003 311.465 273.33C321.453 254.656 337.612 240.021 357.188 231.918C376.764 223.815 398.546 222.746 418.823 228.892C439.099 235.039 456.616 248.02 468.388 265.626C480.16 283.231 485.459 304.37 483.382 325.442C481.306 346.514 471.981 366.214 456.999 381.186C448.514 389.711 438.421 396.47 427.305 401.071C416.189 405.673 404.27 408.025 392.238 407.992ZM392.238 230.412C372.313 230.412 353.005 237.316 337.602 249.947C322.2 262.578 311.658 280.154 307.77 299.682C303.883 319.21 306.892 339.481 316.285 357.04C325.677 374.599 340.872 388.361 359.28 395.981C377.688 403.6 398.17 404.606 417.237 398.826C436.304 393.046 452.775 380.839 463.845 364.284C474.914 347.729 479.897 327.851 477.944 308.037C475.991 288.222 467.224 269.697 453.135 255.619C445.156 247.602 435.666 241.247 425.213 236.92C414.76 232.593 403.552 230.381 392.238 230.412Z" fill="#FFA412"/>
<path d="M404.845 343.035C405.089 341.264 405.016 339.464 404.628 337.718C404.222 336.097 403.454 334.589 402.381 333.307C401.08 331.776 399.566 330.441 397.884 329.342C395.659 327.875 393.329 326.572 390.915 325.444C386.509 323.308 382.215 320.95 378.049 318.378C374.222 315.995 371.016 313.386 368.429 310.552C365.89 307.804 363.954 304.555 362.746 301.014C361.549 297.49 361.223 293.425 361.768 288.82C362.243 284.825 363.385 281.265 365.193 278.139C366.979 275.044 369.396 272.359 372.288 270.259C375.358 268.057 378.796 266.42 382.442 265.423C386.295 264.334 390.525 263.847 395.131 263.963L396.922 248.876L409.072 250.318L407.255 265.613C411.308 266.595 415.172 268.237 418.691 270.473C421.945 272.52 424.755 275.199 426.953 278.352C429.152 281.504 430.695 285.066 431.491 288.825C432.381 292.768 432.548 297.088 431.99 301.786L410.044 299.185C410.716 293.546 409.964 289.179 407.789 286.085C405.614 282.991 402.426 281.196 398.226 280.7C395.947 280.427 393.948 280.512 392.227 280.953C390.63 281.334 389.137 282.064 387.855 283.089C386.656 284.075 385.692 285.317 385.036 286.723C384.334 288.232 383.883 289.844 383.7 291.498C383.489 293.099 383.557 294.725 383.901 296.304C384.282 297.86 385.019 299.306 386.054 300.528C387.37 302.062 388.9 303.399 390.597 304.496C392.927 306.031 395.346 307.428 397.841 308.678C402.533 311.093 406.777 313.503 410.574 315.906C414.106 318.093 417.327 320.747 420.148 323.796C422.682 326.561 424.616 329.821 425.828 333.369C427.026 336.897 427.353 340.94 426.812 345.497C426.32 349.63 425.162 353.256 423.338 356.375C421.543 359.452 419.114 362.112 416.212 364.18C413.121 366.345 409.657 367.922 405.994 368.831C401.828 369.875 397.537 370.329 393.245 370.18L391.578 384.206L379.505 382.775L381.162 368.818C377.051 367.911 373.067 366.502 369.3 364.623C365.628 362.812 362.33 360.323 359.582 357.288C356.858 354.274 354.826 350.638 353.484 346.378C352.143 342.118 351.806 337.17 352.474 331.534L374.423 334.135C374.024 337.473 374.161 340.313 374.834 342.656C375.508 344.998 376.549 346.932 377.958 348.458C379.349 349.972 381.065 351.153 382.976 351.913C384.905 352.688 386.929 353.204 388.994 353.449C391.113 353.738 393.266 353.679 395.367 353.275C397.088 352.936 398.724 352.255 400.176 351.272C401.495 350.36 402.586 349.157 403.364 347.756C404.164 346.295 404.667 344.69 404.845 343.035Z" fill="#FFA412"/>
<path d="M692.368 347.817C692.368 347.817 681.463 335.104 691.695 327.027C691.695 327.027 699.176 322.507 705.263 322.875C705.263 322.875 696.63 337.345 699.422 338.784C702.215 340.223 707.882 321.962 707.882 321.962C707.882 321.962 724.89 320.312 730.362 322.942C730.362 322.942 715.821 334.832 718.872 335.54C721.924 336.247 737.641 324.576 737.641 324.576C737.641 324.576 753.473 327.267 752.629 336.92C751.785 346.573 746.328 349.55 743.931 349.294C741.534 349.037 727.511 343.686 727.204 345.649C726.897 347.611 735.341 354.028 741.254 354.327C741.254 354.327 730.093 366.626 722.675 363.077C715.257 359.529 714.624 353.9 709.998 351.79C705.373 349.681 701.429 349.686 703.337 351.838C705.245 353.991 713.614 356.081 716.259 360.757C718.904 365.432 721.275 368.583 713.6 367.432C705.926 366.281 693.453 360.669 692.905 354.242L692.368 347.817Z" fill="#82B378"/>
<path d="M744.861 337.184C744.861 337.184 701.865 335.529 692.368 347.817C692.368 347.817 690.268 354.103 683.817 359.833L682.81 362.575C682.81 362.575 690.26 354.725 692.926 354.25C692.916 354.242 688.747 339.019 744.861 337.184Z" fill="#82B378"/>
<path d="M683.806 359.825C683.806 359.825 674.577 366.644 673.936 378.831L675.611 378.981C675.611 378.981 678.55 366.38 683.895 361.454C689.239 356.527 683.806 359.825 683.806 359.825Z" fill="#82B378"/>
<path d="M654.24 331.828C654.24 331.828 671.587 322.122 663.491 308.947C663.491 308.947 657.016 300.857 650.077 298.777C650.077 298.777 653.778 318.424 650.077 318.886C646.376 319.348 647.533 296.697 647.533 296.697C647.533 296.697 629.261 287.914 622.089 288.606C622.089 288.606 633.424 307.791 629.723 307.329C626.022 306.867 613.301 287.452 613.301 287.452C613.301 287.452 594.566 283.981 591.558 295.078C588.549 306.176 593.409 311.719 596.186 312.413C598.962 313.107 616.761 312.875 616.307 315.188C615.852 317.5 603.817 321.195 597.11 319.115C597.11 319.115 604.512 337.377 614.225 336.45C623.938 335.524 626.947 329.508 632.959 329.056C638.971 328.605 643.38 330.21 640.361 331.828C637.341 333.446 627.179 332.362 622.322 336.485C617.464 340.608 613.53 343.16 622.551 345.003C631.572 346.845 647.763 345.697 651.001 338.763L654.24 331.828Z" fill="#A8D29F"/>
<path d="M600.116 298.547C600.116 298.547 648.69 314.264 654.24 331.828C654.24 331.828 654.007 339.686 658.865 348.701V352.172C658.865 352.172 653.788 340.386 651.001 338.768C651.001 338.763 661.874 323.508 600.116 298.547Z" fill="#82B378"/>
<path d="M658.868 348.701C658.868 348.701 666.35 360.068 662.088 373.905L660.161 373.387C660.161 373.387 662.032 358.148 658.114 350.482C654.197 342.816 658.868 348.701 658.868 348.701Z" fill="#82B378"/>
<path d="M681.848 318.44C681.848 318.44 658.98 305.644 669.652 288.267C669.652 288.267 678.203 277.605 687.336 274.863C687.336 274.863 682.46 300.763 687.336 301.369C692.213 301.976 690.69 272.12 690.69 272.12C690.69 272.12 714.776 260.542 724.227 261.456C724.227 261.456 709.288 286.745 714.167 286.133C719.046 285.522 735.811 259.934 735.811 259.934C735.811 259.934 760.509 255.362 764.472 269.987C768.435 284.611 762.032 291.922 758.374 292.838C754.716 293.754 731.239 293.447 731.848 296.494C732.457 299.54 748.311 304.416 757.153 301.674C757.153 301.674 747.397 325.743 734.592 324.523C721.788 323.302 717.822 315.382 709.897 314.774C701.971 314.165 696.176 316.298 700.138 318.429C704.101 320.56 717.507 319.129 723.92 324.571C730.333 330.012 735.506 333.361 723.615 335.799C711.725 338.237 690.383 336.715 686.115 327.572L681.848 318.44Z" fill="#A8D29F"/>
<path d="M753.193 274.569C753.193 274.569 689.167 295.287 681.848 318.44C681.848 318.44 682.155 328.8 675.75 340.682V345.251C675.75 345.251 682.46 329.713 686.118 327.58C686.107 327.58 671.777 307.473 753.193 274.569Z" fill="#82B378"/>
<path d="M675.739 340.682C675.739 340.682 665.853 355.665 671.496 373.905L674.035 373.221C674.035 373.221 671.571 353.133 676.736 343.03C681.901 332.926 675.739 340.682 675.739 340.682Z" fill="#82B378"/>
<path d="M681.068 413.455C692.947 413.455 704.34 408.74 712.741 400.345C721.141 391.951 725.86 380.566 725.86 368.695H636.275C636.275 380.566 640.994 391.951 649.395 400.345C657.795 408.74 669.188 413.455 681.068 413.455Z" fill="#F1A34F"/>
<path d="M692.09 413.114C685.788 413.896 679.392 413.331 673.324 411.457C667.257 409.583 661.658 406.442 656.897 402.242C652.136 398.043 648.322 392.88 645.708 387.097C643.094 381.313 641.74 375.041 641.734 368.695H652.861C652.861 379.604 656.847 390.138 664.071 398.317C671.294 406.496 681.258 411.758 692.09 413.114Z" fill="#FFB973"/>
<path d="M726.472 415.733H635.655C635.655 415.008 635.798 414.29 636.076 413.62C636.354 412.95 636.761 412.341 637.274 411.828C637.787 411.316 638.396 410.909 639.067 410.631C639.737 410.354 640.456 410.211 641.181 410.211H720.951C722.416 410.213 723.82 410.795 724.855 411.83C725.891 412.866 726.472 414.269 726.472 415.733Z" fill="#F1A34F"/>
<path d="M726.881 368.695H634.803V370.068H726.881V368.695Z" fill="#D86713"/>
<path d="M287.491 59.7905V62.5035C287.491 62.5035 286.751 70.992 297.212 72.2309C307.674 73.4699 316.248 73.299 315.965 66.7597C315.022 61.6864 313.333 53.8174 313.264 49.6225C313.243 47.9238 313.368 46.2265 313.638 44.5492L293.37 44.146L287.4 45.1206L287.491 59.7905Z" fill="#FFB27D"/>
<path d="M287.414 45.1099L287.491 59.7959C289.779 60.8611 292.273 61.4082 294.797 61.398C304.112 61.398 310.132 54.573 313.277 49.6199C313.256 47.9212 313.382 46.2238 313.651 44.5465L293.383 44.1433L287.414 45.1099Z" fill="#E2915A"/>
<path d="M315.204 41.2809C312.852 53.9269 296.523 53.5103 289.466 52.7173C287.478 52.4957 286.23 52.242 286.23 52.242C283.991 51.6439 282.74 48.1192 282.16 43.5025C281.009 34.3678 282.465 20.9556 284.01 17.5244C286.332 12.3629 290.711 6.78226 307.155 10.8089C323.599 14.8355 318.22 25.0783 315.204 41.2809Z" fill="#FFB27D"/>
<path d="M328.564 415.693H305.426C305.828 412.884 306.445 410.109 307.27 407.394C307.623 406.252 308.061 405.138 308.582 404.062C310.832 399.573 325.125 402.428 325.125 402.428C325.125 402.428 326.461 403.565 327.49 407.907C328.069 410.467 328.429 413.072 328.564 415.693Z" fill="#233862"/>
<path d="M258.641 408.395C258.576 411.541 258.181 414.518 257.037 415.693H211.27C211.852 414.037 213.501 411.549 218.198 410.788C223.543 409.923 231.861 407.354 236.719 402.222C238.485 400.427 239.725 398.183 240.305 395.733C242.458 386.153 258.109 398.671 258.109 398.671C258.49 401.898 258.668 405.146 258.641 408.395Z" fill="#233862"/>
<path d="M289.084 304.838C288.445 308.347 288.042 311.222 287.935 313.286C286.479 341.646 264.044 406.491 260.03 408.003C253.823 410.345 244.046 405.367 238.92 403.731C236.801 403.055 235.369 400.919 235.842 398.751C246.953 347.71 251.036 274.216 252.521 230.703C253.272 208.786 257.037 193.649 257.037 193.649C257.037 193.649 311.754 179.059 312.083 197.513C312.376 213.852 293.963 277.899 289.084 304.838Z" fill="#2B478B"/>
<path d="M289.084 304.838L252.53 230.711C253.28 208.794 257.045 193.657 257.045 193.657C257.045 193.657 311.762 179.067 312.091 197.521C312.377 213.852 293.963 277.899 289.084 304.838Z" fill="#233862"/>
<path d="M276.907 197.585L305.835 407.084C305.835 407.084 318.538 410.144 328.417 407.696C328.417 407.696 336.885 296.275 336.18 269.338C335.474 242.401 342.259 197.262 334.632 192.282C327.006 187.302 276.907 197.585 276.907 197.585Z" fill="#2B478B"/>
<path d="M278.962 5.48722C278.962 5.48722 286.201 4.93183 294.727 1.21494C301.656 -1.79702 310.399 1.51934 313.237 3.01464C313.135 2.40198 312.898 1.81942 312.545 1.30839C312.545 1.30839 313.817 2.21092 314.007 3.47124C314.137 3.57004 314.196 3.63411 314.162 3.65814C314.127 3.68217 315.607 3.39113 316.534 3.81034C316.534 3.81034 315.885 3.71957 315.653 4.13611C315.625 4.18053 315.59 4.21946 315.548 4.25093C326.357 9.46845 327.356 26.5389 323.877 30.4908C319.693 35.241 314.675 45.943 314.675 45.943C314.675 45.943 312.844 43.4144 313.606 39.2329C314.367 35.0514 310.752 35.0514 306.188 33.1503C301.624 31.2491 305.426 25.9408 301.432 22.6965C297.437 19.4522 282.788 21.3614 282.981 18.8942C277.559 16.9156 278.962 6.04529 278.962 5.48722Z" fill="#233862"/>
<path d="M318.442 70.4019L311.781 213.195C311.781 213.195 256.201 214.1 257.783 201.532C259.365 188.963 277.824 74.773 277.824 74.773L318.44 70.4019H318.442Z" fill="#E9F3FE"/>
<path d="M338.291 151.34C334.982 161.252 341.217 194.517 343.44 205.788C343.929 208.17 344.241 209.579 344.241 209.579C336.543 222.092 308.35 221.932 308.35 221.932C302.928 197.983 300.109 159.845 300.109 159.845L321.74 65.0909L348.958 90.2279C348.958 90.2279 346.897 105.56 344.348 121.162C342.355 133.514 340.086 146.085 338.291 151.34Z" fill="#22407A"/>
<path d="M292.031 43.3503C292.031 43.3503 291.497 44.9818 287.384 44.3863C287.384 44.3863 283.924 43.887 284.178 42.0659C284.181 42.0766 287.657 41.054 292.031 43.3503Z" fill="white"/>
<path d="M260.789 72.4366C260.789 72.4366 260.789 72.4606 260.789 72.4953C259.472 73.769 222.367 109.771 215.179 123.872C207.86 138.174 248.628 166.67 248.628 166.67C248.628 166.67 251.252 167.706 253.072 167.3C251.151 183.115 248.992 197.708 250.272 203.937C252.583 215.195 263.001 218.976 263.001 218.111C263.001 217.844 265.687 177.059 268.88 156C275.972 109.25 284.434 65.3793 284.434 65.3793C272.295 66.6396 260.789 72.4366 260.789 72.4366ZM238.696 130.048C238.654 129.985 238.635 129.908 238.643 129.832C238.643 127.773 246.504 123.221 255.015 117.859L255.178 117.693H255.194C255.044 122.072 255.06 126.374 255.322 130.374C255.803 137.797 255.263 146.662 254.365 155.701C250.304 149.37 239.487 132.377 238.696 130.048Z" fill="#22407A"/>
<path d="M320.019 64.92C320.088 63.5582 313.627 61.6731 313.627 61.6731C313.627 61.6731 306.236 71.9185 294.054 72.0867C294.054 72.0867 297.528 78.8369 301.616 80.5859C301.608 80.5939 319.618 73.0133 320.019 64.92Z" fill="#D9E9F9"/>
<path d="M276.947 168.603C277.247 171.94 278.778 175.046 281.244 177.316L285.118 180.883C285.349 181.095 285.62 181.256 285.916 181.358C286.212 181.46 286.526 181.499 286.838 181.474C287.149 181.449 287.453 181.36 287.728 181.212C288.004 181.065 288.246 180.862 288.44 180.616L293.25 174.523C294.536 172.887 295.143 170.82 294.946 168.75C294.498 164.141 293.658 155.257 292.99 146.683C292.456 139.741 292.007 132.988 291.975 128.884C291.871 115.776 294.471 73.9745 294.471 73.9745L291.328 74.1401C291.328 74.1401 283.518 90.3641 279.427 112.441C278.361 118.13 277.636 123.878 277.254 129.653C277.254 129.653 275.606 153.53 276.947 168.603Z" fill="#C65447"/>
<path d="M276.947 168.603C277.247 171.94 278.778 175.046 281.244 177.316L285.118 180.883C285.349 181.095 285.62 181.256 285.916 181.358C286.212 181.46 286.526 181.499 286.838 181.474C287.149 181.449 287.453 181.36 287.728 181.212C288.004 181.065 288.246 180.862 288.44 180.616L293.25 174.523C294.536 172.887 295.143 170.82 294.946 168.75C294.498 164.141 293.658 155.257 292.99 146.683C284.301 136.927 280.779 123.453 279.427 112.441C278.361 118.13 277.636 123.878 277.254 129.653C277.254 129.653 275.606 153.53 276.947 168.603Z" fill="#BA4C43"/>
<path d="M294.054 71.8544C294.054 71.8544 287.601 68.0334 287.58 63.8893C287.58 63.8893 283.411 63.3553 281.591 65.3873C281.591 65.3873 280.06 72.4873 282.091 76.602C282.102 76.6127 291.382 75.2002 294.054 71.8544Z" fill="#D9E9F9"/>
<path d="M298.434 71.2403L289.685 69.1442C289.685 69.1442 288.541 69.243 288.573 70.6689C288.605 72.0948 291.037 76.2549 292.114 76.586C293.191 76.9171 300.504 74.1214 298.434 71.2403Z" fill="#BA4C43"/>
<path d="M319.001 64.2177C319.068 62.8533 314.696 60.0469 314.696 60.0469C314.696 60.0469 306.236 69.9266 294.054 70.1055C294.054 70.1055 297.528 76.8557 301.616 78.6047C301.608 78.5966 318.6 72.3084 319.001 64.2177Z" fill="#E9F3FE"/>
<path d="M294.054 70.1055C294.054 70.1055 287.529 66.6342 287.505 62.5035C287.505 62.5035 283.566 64.2364 281.746 66.2417C281.746 66.2417 280.06 70.7249 282.091 74.8504C282.102 74.8584 291.382 73.4485 294.054 70.1055Z" fill="#E9F3FE"/>
<path d="M246.028 168.99C246.028 165.351 249.235 162.429 252.834 162.974C253.327 163.027 253.804 163.178 254.237 163.417C254.671 163.656 255.052 163.98 255.359 164.368C257.839 167.666 260.196 177.257 255.806 177.719C254.018 177.9 251.723 176.651 249.954 175.316C248.185 173.981 246.028 171.786 246.028 169.535V168.99Z" fill="#FFB27D"/>
<path d="M343.44 205.788C335.472 197.51 321.699 181.19 322.188 167.807C322.838 149.063 344.367 121.162 344.367 121.162C342.36 133.514 340.092 146.085 338.296 151.335C334.983 161.252 341.217 194.517 343.44 205.788Z" fill="#233862"/>
<path d="M343.191 173.182C343.191 173.182 337.46 176.045 333.983 174.613C330.507 173.182 326.41 172.106 322.525 176.528C318.64 180.95 317.817 184.004 318.637 185.655C319.458 187.305 328.524 186.677 330.023 185.655C331.522 184.632 333.906 182.114 335.415 182.555C339.579 183.761 343.084 180.589 345.035 178.061C346.232 176.536 343.026 175.791 343.191 173.182Z" fill="#FFB27D"/>
<path d="M321.753 65.0909C321.753 65.0909 344.573 67.6142 349.954 77.5446C355.336 87.475 383.321 127.728 382.404 144.443C381.488 161.158 344.231 179.922 344.231 179.922C344.231 179.922 335.979 176.451 335.856 172.688C335.733 168.926 361.613 146.521 360.044 142.352C358.476 138.184 329.978 105.101 327.228 94.1985C324.478 83.2961 321.753 65.0909 321.753 65.0909Z" fill="#22407A"/>
<path d="M255.178 117.693L255.015 117.859C246.504 123.221 238.643 127.773 238.643 129.832C237.504 126.201 248.564 111.031 252.142 107.937C255.773 104.802 255.178 117.693 255.178 117.693Z" fill="#233862"/>
<path d="M314.701 60.0469C314.701 60.0469 297.378 132.553 300.136 159.866C300.136 159.866 306.506 130.678 321.833 106.77C321.833 106.77 316.238 101.854 316.542 100.043C316.542 100.043 320.695 98.8125 324.724 99.6403C324.724 99.6403 324.278 68.3992 321.766 65.0856C319.255 61.7719 314.701 60.0469 314.701 60.0469Z" fill="#233862"/>
<path d="M287.505 62.5035C287.74 62.613 270.336 133.354 268.875 156C268.875 156 270.609 115.592 270.438 103.947C270.438 103.947 277.634 100.14 277.634 98.8045C277.634 97.4694 269.96 93.8594 269.96 93.8594C269.96 93.8594 274.817 68.976 277.471 66.2337C280.124 63.4914 287.505 62.5035 287.505 62.5035Z" fill="#233862"/>
<path d="M487.926 200.317L535.363 200.263C538.339 200.253 541.19 199.065 543.293 196.961C545.396 194.857 546.58 192.006 546.586 189.032L546.562 168.488C546.552 165.514 545.365 162.665 543.259 160.563C541.153 158.462 538.299 157.279 535.323 157.273L487.883 157.329C484.906 157.339 482.055 158.525 479.952 160.63C477.848 162.735 476.665 165.586 476.66 168.56L476.684 189.102C476.693 192.077 477.881 194.927 479.988 197.028C482.095 199.13 484.949 200.312 487.926 200.317Z" fill="#233862"/>
<path d="M538.802 162.635C537.906 161.08 536.653 159.761 535.146 158.786C533.638 157.811 531.921 157.208 530.134 157.028C529.767 156.991 529.399 156.973 529.031 156.974H519.585V152.542C519.584 152.054 519.487 151.571 519.3 151.121C519.112 150.67 518.838 150.261 518.492 149.917C518.147 149.573 517.736 149.3 517.285 149.114C516.834 148.928 516.35 148.832 515.862 148.833H513.399H503.48H501.692C500.707 148.835 499.763 149.228 499.066 149.924C498.37 150.621 497.979 151.565 497.978 152.55V156.985L481.678 157.001C478.693 157.014 475.834 158.207 473.725 160.319C471.617 162.431 470.43 165.291 470.423 168.274L470.45 189.056C470.462 192.04 471.655 194.897 473.768 197.003C475.882 199.11 478.744 200.296 481.729 200.301L529.084 200.25C529.902 200.251 530.717 200.162 531.516 199.983C532.752 199.706 533.932 199.221 535.005 198.549C536.633 197.537 537.976 196.127 538.908 194.453C539.84 192.779 540.329 190.895 540.331 188.979L540.307 168.2C540.301 166.245 539.782 164.327 538.802 162.635ZM500.292 152.561C500.295 152.193 500.442 151.841 500.702 151.581C500.962 151.321 501.314 151.173 501.682 151.169H503.787H511.592H515.849C516.217 151.169 516.569 151.315 516.83 151.574C517.09 151.833 517.237 152.185 517.239 152.552V156.985L500.292 157.004V152.561Z" fill="#2B478B"/>
</g>
<defs>
<clipPath id="clip0_150_115">
<rect width="855" height="418" fill="white"/>
</clipPath>
</defs>
</svg>
